 <svg  version="1.0" xmlns="http://www.w3.org/2000/svg"  width="648.000000pt" height="744.000000pt" viewBox="0 0 648.000000 744.000000"  preserveAspectRatio="xMidYMid meet">  <g transform="translate(0.000000,744.000000) scale(0.100000,-0.100000)" fill="#17b086" stroke="none"> <path d="M2952 6950 c-7 -11 -34 -16 -110 -18 -71 -3 -105 -8 -113 -18 -6 -8 -30 -14 -54 -14 -24 0 -56 -7 -71 -15 -16 -8 -48 -15 -70 -15 -25 0 -47 -6 -54 -15 -7 -8 -27 -15 -44 -15 -17 -1 -42 -7 -56 -15 -14 -8 -37 -14 -51 -15 -14 0 -34 -7 -45 -15 -10 -8 -29 -15 -40 -15 -12 0 -27 -7 -34 -15 -7 -8 -23 -15 -36 -15 -12 0 -25 -4 -28 -9 -4 -5 -27 -19 -54 -31 -26 -12 -54 -26 -62 -31 -8 -5 -25 -13 -37 -18 -11 -6 -24 -15 -28 -20 -3 -6 -14 -11 -24 -11 -10 0 -24 -7 -31 -15 -7 -8 -20 -15 -30 -15 -10 0 -20 -6 -23 -13 -3 -7 -24 -19 -46 -27 -23 -7 -45 -19 -49 -25 -9 -15 -52 -39 -72 -40 -8 0 -14 -6 -12 -14 4 -19 -18 -31 -46 -24 -17 4 -21 2 -16 -11 4 -10 1 -16 -9 -16 -10 0 -13 -7 -10 -20 4 -15 0 -20 -15 -20 -11 0 -25 -7 -32 -15 -7 -9 -21 -13 -31 -10 -14 5 -16 1 -12 -15 3 -12 0 -20 -6 -20 -7 0 -25 -14 -41 -31 -15 -17 -33 -28 -39 -25 -6 4 -11 0 -11 -9 0 -9 -13 -22 -30 -28 -16 -6 -30 -16 -30 -22 0 -6 -21 -33 -47 -60 -27 -28 -69 -73 -94 -102 -32 -36 -49 -49 -56 -42 -8 8 -13 7 -17 0 -4 -6 -2 -11 3 -11 21 0 11 -18 -39 -69 -27 -28 -50 -54 -50 -57 0 -3 -14 -25 -31 -49 -19 -27 -37 -41 -45 -38 -9 3 -14 -2 -14 -14 0 -21 -43 -108 -66 -134 -8 -8 -14 -23 -14 -33 0 -9 -6 -19 -14 -22 -8 -3 -17 -16 -20 -30 -4 -13 -11 -24 -16 -24 -6 0 -10 -11 -10 -24 0 -14 -5 -28 -11 -31 -5 -4 -15 -17 -20 -28 -6 -12 -21 -42 -34 -67 -13 -25 -24 -55 -24 -66 -1 -12 -8 -27 -16 -34 -8 -7 -15 -22 -15 -34 0 -11 -7 -30 -15 -40 -8 -11 -15 -32 -15 -47 0 -14 -7 -32 -15 -39 -8 -7 -15 -24 -15 -39 0 -14 -7 -35 -15 -45 -8 -11 -15 -36 -15 -56 0 -19 -6 -44 -14 -55 -8 -11 -16 -43 -18 -70 -3 -28 -10 -63 -16 -80 -17 -47 -42 -195 -42 -246 0 -26 -6 -58 -13 -73 -10 -18 -14 -85 -16 -247 -2 -216 3 -284 40 -489 5 -30 13 -75 18 -100 4 -25 13 -55 19 -67 7 -12 12 -37 12 -55 0 -18 7 -42 15 -52 8 -11 15 -34 15 -52 0 -17 7 -37 15 -44 8 -7 15 -25 15 -40 0 -15 7 -33 15 -40 8 -7 15 -27 15 -45 0 -20 6 -35 15 -39 8 -3 15 -16 15 -29 0 -14 7 -30 15 -37 8 -7 15 -21 15 -30 0 -16 15 -52 42 -100 4 -8 11 -22 14 -30 3 -8 12 -27 20 -42 8 -14 14 -31 14 -38 0 -6 7 -18 15 -26 8 -9 15 -24 15 -34 0 -10 4 -21 10 -25 11 -7 80 -146 80 -162 0 -6 7 -13 15 -17 8 -3 15 -16 15 -30 0 -13 7 -26 15 -30 8 -3 15 -14 15 -25 0 -10 7 -21 15 -25 8 -3 15 -17 15 -31 0 -14 4 -25 9 -25 5 0 18 -22 30 -50 12 -28 28 -50 36 -50 8 0 15 -8 15 -19 0 -10 7 -24 15 -31 8 -7 15 -19 15 -26 0 -8 4 -14 9 -14 10 0 34 -38 47 -72 3 -10 10 -18 15 -18 5 0 14 -10 19 -22 15 -34 33 -62 48 -71 6 -4 12 -16 12 -26 0 -11 7 -21 15 -25 8 -3 15 -12 15 -21 0 -8 5 -15 10 -15 6 0 14 -8 17 -17 8 -21 21 -37 46 -61 9 -9 17 -22 17 -29 0 -7 4 -13 9 -13 5 0 20 -17 32 -37 13 -21 36 -50 51 -65 16 -15 28 -30 28 -33 0 -4 6 -13 13 -20 19 -22 30 -37 57 -77 14 -21 31 -38 38 -38 6 0 12 -6 12 -14 0 -8 7 -16 15 -20 8 -3 15 -11 15 -19 0 -7 27 -42 59 -77 33 -35 66 -75 73 -89 7 -14 34 -46 61 -72 26 -26 47 -52 47 -58 0 -6 5 -11 10 -11 6 0 13 -7 16 -15 4 -8 20 -30 38 -49 51 -54 116 -128 116 -132 0 -2 12 -16 28 -33 15 -16 48 -53 74 -82 26 -30 61 -69 77 -87 17 -18 31 -35 31 -38 0 -2 65 -69 145 -148 80 -80 145 -151 145 -158 0 -8 13 -22 30 -31 16 -10 30 -24 30 -31 0 -7 16 -18 35 -26 19 -8 35 -20 35 -27 0 -7 5 -13 10 -13 6 0 10 -9 10 -20 0 -12 5 -17 14 -14 8 3 22 -9 36 -30 12 -20 26 -36 31 -36 14 0 49 -33 49 -47 0 -7 4 -13 8 -13 5 0 28 -18 53 -40 24 -22 48 -40 53 -40 4 0 6 -8 3 -19 -3 -13 0 -17 12 -14 10 2 24 -8 36 -27 11 -16 23 -30 28 -30 4 0 16 -9 27 -20 17 -17 33 -20 110 -20 70 0 92 3 96 14 3 8 30 31 59 52 30 20 56 43 59 50 3 8 13 14 22 14 9 0 25 11 36 25 11 14 28 25 39 25 10 0 19 7 19 15 0 8 5 15 10 15 6 0 10 6 10 14 0 7 17 25 38 39 30 20 121 105 167 156 6 6 96 96 200 200 105 103 216 216 248 250 32 33 63 61 68 61 5 0 9 7 9 15 0 22 152 185 172 185 4 0 8 9 8 20 0 11 7 20 15 20 8 0 15 7 15 16 0 22 60 80 79 76 12 -3 13 -1 3 11 -11 12 -4 24 38 68 27 28 50 58 50 66 0 7 5 13 10 13 15 0 85 81 85 99 0 9 8 17 18 19 9 2 17 10 17 18 0 8 4 14 9 14 5 0 25 26 44 58 20 31 47 68 61 81 14 14 26 30 26 36 0 6 13 25 30 41 16 16 30 35 30 42 0 7 7 15 15 18 8 4 15 13 15 20 0 8 7 17 15 20 8 4 15 13 15 20 0 8 7 17 15 20 8 4 15 14 15 23 0 9 8 24 18 33 34 33 72 91 72 113 0 8 4 15 10 15 5 0 22 19 37 43 15 23 30 44 33 47 15 14 40 61 40 75 0 8 6 15 13 15 7 0 23 21 36 47 28 61 46 92 60 106 6 6 11 19 11 29 0 10 6 21 14 24 8 3 17 13 20 22 3 9 10 25 16 35 23 40 31 53 40 75 5 12 14 22 20 22 5 0 10 11 10 25 0 14 7 28 15 31 8 4 15 15 15 25 0 11 7 22 15 25 8 4 15 14 15 24 0 10 7 23 15 30 8 7 15 20 15 29 0 10 7 26 15 37 8 10 15 26 15 35 0 9 7 22 15 29 8 7 15 20 15 30 0 10 6 23 14 30 8 6 16 24 18 38 2 19 9 27 20 26 14 -1 16 4 12 22 -4 15 0 34 10 49 9 13 16 36 16 49 0 15 8 30 20 36 15 8 19 17 14 34 -3 14 1 27 10 35 9 8 16 25 16 40 0 14 7 39 15 55 8 15 15 42 15 60 1 17 7 42 15 56 8 14 15 41 15 60 0 19 7 44 15 54 9 11 15 41 15 68 0 27 6 61 14 76 9 17 14 66 15 137 1 61 8 144 15 185 11 62 11 99 0 210 -8 74 -15 172 -15 218 -1 50 -7 89 -15 100 -7 9 -14 43 -14 75 0 32 -7 74 -15 94 -8 19 -15 50 -15 67 -1 17 -7 42 -15 56 -8 14 -14 41 -15 61 0 20 -6 42 -14 48 -8 7 -16 28 -19 49 -5 40 -21 90 -43 134 -8 14 -14 35 -14 46 0 11 -7 26 -16 33 -11 9 -14 23 -11 45 5 27 3 31 -14 27 -15 -4 -19 0 -19 21 0 14 -13 45 -30 68 -16 22 -30 51 -30 64 0 12 -3 24 -7 26 -11 5 -53 66 -53 77 0 5 6 11 13 14 6 2 9 8 5 12 -4 4 -14 3 -21 -3 -16 -14 -27 -6 -27 19 0 10 -6 22 -13 26 -21 13 -39 59 -33 81 4 11 2 23 -4 27 -5 3 -10 1 -10 -4 0 -6 -7 -11 -15 -11 -8 0 -15 6 -15 13 0 7 -13 26 -30 42 -16 16 -30 36 -30 44 0 9 -18 33 -40 54 -23 21 -39 45 -38 55 2 11 -3 16 -14 14 -10 -2 -18 1 -18 7 0 5 -29 39 -65 76 -36 37 -65 72 -65 76 0 5 -4 9 -9 9 -15 0 -121 104 -121 119 0 8 -6 11 -16 7 -20 -8 -71 39 -54 49 6 3 8 11 4 16 -4 6 -11 6 -19 -1 -10 -8 -20 -4 -42 16 -15 14 -38 30 -50 35 -27 10 -30 26 -5 32 9 3 1 4 -18 4 -28 -2 -34 1 -32 16 3 16 -7 21 -34 18 -7 -1 -11 7 -10 16 1 12 -5 17 -16 15 -23 -4 -68 26 -68 44 0 10 -7 13 -23 9 -15 -4 -28 -1 -36 9 -8 9 -20 16 -28 16 -7 0 -16 6 -19 14 -3 8 -16 17 -30 20 -13 4 -24 11 -24 16 0 6 -8 10 -19 10 -10 0 -24 7 -31 15 -7 8 -20 15 -30 15 -10 0 -23 7 -30 15 -7 8 -20 15 -29 15 -9 0 -22 5 -29 12 -12 12 -70 36 -110 45 -13 3 -26 12 -29 19 -3 8 -19 14 -38 14 -18 0 -38 7 -45 15 -7 8 -25 15 -39 15 -15 0 -36 7 -47 15 -10 8 -31 15 -46 15 -15 0 -29 4 -33 9 -3 6 -27 13 -53 17 -26 4 -59 13 -74 20 -15 8 -47 14 -72 14 -24 0 -51 6 -58 13 -9 9 -53 16 -132 20 -71 3 -122 10 -126 17 -4 7 -86 11 -257 13 -214 2 -253 0 -261 -13z m613 -70 c5 -4 48 -11 95 -15 47 -4 103 -13 125 -21 22 -8 48 -14 59 -14 10 0 41 -7 70 -16 28 -9 74 -23 101 -31 50 -15 104 -34 162 -59 17 -8 36 -14 41 -14 6 0 23 -6 39 -14 15 -8 86 -43 156 -78 71 -34 133 -68 139 -75 6 -7 15 -13 20 -13 6 0 30 -13 55 -30 24 -16 46 -30 48 -30 6 0 135 -89 180 -124 160 -125 251 -207 392 -358 76 -81 233 -279 233 -294 0 -3 14 -23 30 -44 17 -21 30 -43 30 -48 0 -6 6 -17 13 -24 19 -21 31 -43 95 -173 96 -192 167 -384 192 -517 5 -26 13 -56 19 -67 6 -11 11 -35 11 -53 0 -18 5 -49 10 -68 12 -41 18 -77 25 -145 2 -27 8 -75 12 -105 12 -88 8 -506 -6 -600 -17 -112 -40 -224 -57 -279 -8 -25 -14 -56 -14 -71 0 -14 -4 -30 -10 -36 -5 -5 -14 -30 -19 -54 -9 -45 -23 -89 -47 -145 -7 -16 -20 -50 -29 -75 -21 -54 -43 -106 -62 -142 -7 -14 -13 -33 -13 -42 0 -9 -4 -16 -9 -16 -5 0 -13 -10 -16 -22 -9 -30 -98 -208 -136 -273 -17 -27 -37 -63 -45 -80 -8 -16 -23 -43 -34 -60 -11 -16 -23 -37 -27 -45 -3 -8 -18 -33 -32 -55 -36 -56 -49 -78 -57 -94 -4 -7 -40 -63 -81 -123 -40 -60 -73 -113 -73 -118 0 -4 -3 -10 -7 -12 -5 -1 -26 -30 -48 -63 -22 -33 -65 -94 -95 -136 -30 -42 -62 -86 -70 -99 -32 -48 -104 -142 -153 -200 -7 -8 -28 -35 -47 -60 -19 -25 -61 -76 -92 -115 -32 -38 -71 -85 -86 -104 -15 -19 -31 -39 -37 -45 -5 -6 -32 -38 -60 -71 -27 -33 -61 -73 -77 -90 -32 -35 -65 -73 -146 -167 -52 -62 -578 -587 -683 -684 -43 -40 -168 -140 -275 -220 -36 -27 -62 -40 -74 -37 -21 6 -130 108 -390 365 -196 193 -510 517 -510 524 0 3 -44 54 -97 112 -54 59 -101 112 -105 117 -19 25 -132 161 -142 170 -6 6 -36 42 -66 80 -30 39 -70 87 -90 108 -19 21 -39 46 -44 55 -5 10 -14 22 -20 28 -6 6 -24 28 -41 49 -69 86 -130 160 -136 165 -7 6 -157 208 -179 240 -8 13 -34 49 -57 81 -24 33 -43 61 -43 63 0 3 -19 33 -42 68 -24 35 -47 71 -53 80 -5 9 -30 50 -54 90 -25 40 -51 84 -59 98 -7 14 -28 52 -46 85 -33 60 -126 244 -151 300 -7 17 -27 59 -43 95 -16 36 -37 83 -47 105 -9 22 -22 54 -29 70 -8 17 -21 50 -31 75 -9 25 -23 58 -31 73 -8 16 -14 35 -14 44 0 8 -6 29 -14 46 -15 36 -30 91 -53 192 -33 153 -45 236 -51 365 -4 74 -10 140 -14 145 -10 17 11 362 27 439 8 38 15 80 15 95 0 27 22 130 46 215 8 26 14 59 14 71 0 12 7 36 15 51 8 16 15 37 15 47 0 9 4 25 9 35 5 9 19 46 31 82 12 36 29 79 36 97 8 17 14 34 14 37 0 9 127 263 148 298 76 122 105 166 171 253 137 182 355 400 531 531 69 52 130 98 137 104 7 5 14 10 17 10 3 0 24 13 48 29 68 46 384 211 403 211 4 0 23 7 43 16 21 9 52 22 70 30 18 8 40 14 50 14 9 0 30 7 46 15 15 8 43 15 62 15 18 0 35 4 38 9 4 5 30 12 58 16 29 4 70 14 92 21 21 8 53 14 71 14 18 0 45 4 61 10 57 19 252 29 494 23 135 -2 249 -8 255 -13z"/> <path d="M2890 6119 c-58 -11 -113 -25 -122 -30 -10 -5 -28 -9 -40 -9 -25 0 -148 -39 -162 -52 -6 -4 -16 -8 -24 -8 -21 0 -187 -77 -287 -133 -56 -31 -184 -116 -221 -146 -18 -14 -47 -37 -65 -51 -51 -39 -202 -190 -239 -240 -18 -25 -38 -49 -44 -55 -17 -15 -76 -98 -76 -106 0 -5 -10 -19 -22 -32 -13 -14 -47 -74 -77 -133 -30 -60 -58 -116 -62 -124 -5 -8 -12 -22 -15 -30 -3 -8 -12 -29 -20 -47 -8 -17 -14 -37 -14 -45 0 -8 -4 -18 -9 -23 -5 -6 -19 -41 -30 -80 -12 -38 -29 -90 -37 -115 -8 -25 -14 -59 -14 -77 0 -17 -4 -34 -9 -38 -5 -3 -12 -33 -15 -68 -13 -136 -15 -153 -24 -182 -14 -48 -13 -268 2 -368 8 -51 18 -125 21 -165 4 -39 11 -75 16 -78 5 -3 9 -21 9 -39 0 -19 7 -56 15 -82 8 -26 21 -70 29 -98 33 -117 89 -286 97 -291 5 -3 9 -15 9 -27 0 -13 6 -31 14 -42 7 -11 17 -35 21 -52 3 -18 11 -33 16 -33 5 0 9 -5 9 -12 0 -11 50 -124 70 -158 5 -8 18 -33 30 -54 28 -52 106 -170 123 -187 7 -8 30 -38 50 -67 21 -28 46 -62 56 -75 124 -147 180 -208 275 -302 103 -102 146 -141 242 -220 20 -16 44 -37 53 -46 25 -25 319 -240 395 -289 71 -45 196 -118 226 -132 19 -9 47 -22 63 -29 40 -18 172 -16 241 5 55 17 135 56 245 121 49 29 166 110 169 117 2 4 8 8 13 8 9 0 78 47 116 80 7 5 15 10 18 10 7 0 111 78 166 124 20 17 46 38 56 46 16 12 137 120 196 176 7 6 39 41 72 78 33 37 83 91 110 120 95 99 192 227 287 379 24 38 51 80 60 95 10 15 22 37 27 49 5 11 15 24 20 28 6 3 11 13 11 21 0 9 7 22 15 30 8 9 15 24 15 33 0 10 7 24 15 31 8 7 15 18 15 25 0 11 20 58 41 97 5 10 18 46 30 80 12 35 25 68 29 73 4 6 18 46 30 90 12 44 29 99 36 123 8 23 14 55 14 70 0 16 4 32 9 38 5 5 18 61 28 124 14 90 18 173 17 376 0 171 -4 267 -11 275 -5 8 -13 48 -17 89 -4 41 -11 79 -16 84 -6 6 -10 28 -10 51 0 22 -7 53 -15 69 -8 15 -15 36 -15 45 0 20 -27 107 -46 144 -8 16 -14 35 -14 43 0 7 -13 40 -29 71 -15 32 -45 92 -65 133 -43 88 -39 81 -137 227 -42 63 -98 137 -124 166 -73 81 -189 197 -197 197 -5 0 -16 8 -26 18 -79 75 -205 155 -389 246 -43 21 -90 45 -105 52 -14 8 -33 14 -41 14 -9 0 -28 6 -44 14 -38 20 -130 46 -159 46 -12 0 -25 4 -29 9 -3 5 -36 12 -73 16 -37 3 -78 12 -92 19 -19 11 -88 14 -290 14 -224 0 -281 -3 -370 -19z m345 -39 c4 -6 12 -7 18 -3 18 12 127 14 127 3 0 -6 42 -10 103 -10 69 -1 110 -5 127 -15 14 -8 46 -14 71 -15 29 0 51 -6 59 -15 7 -9 29 -15 52 -15 30 0 41 -4 45 -18 3 -14 11 -18 28 -14 13 2 38 -3 56 -12 18 -9 43 -16 56 -16 16 0 27 -7 30 -20 4 -15 14 -20 39 -20 19 0 34 -4 34 -10 0 -5 9 -10 19 -10 25 0 38 -20 20 -31 -9 -6 -5 -7 14 -3 18 4 34 1 45 -9 9 -8 26 -17 37 -19 12 -2 19 -11 18 -22 0 -11 4 -15 13 -12 7 3 20 -1 28 -9 8 -8 24 -15 36 -15 17 0 21 -5 17 -19 -3 -14 0 -17 15 -13 14 3 21 -2 25 -17 4 -16 11 -21 25 -18 11 3 21 0 25 -9 3 -8 12 -14 20 -14 10 0 14 -7 10 -19 -3 -14 -1 -18 9 -14 14 5 64 -39 64 -58 0 -5 7 -9 15 -9 9 0 18 -7 21 -15 4 -8 11 -15 18 -15 6 0 20 -13 29 -30 10 -16 27 -35 38 -40 10 -6 19 -15 19 -21 0 -6 13 -22 30 -37 22 -20 28 -33 23 -50 -4 -18 -2 -21 11 -16 15 6 20 -4 17 -32 -1 -7 7 -11 16 -10 13 1 17 -5 15 -21 -2 -17 1 -20 18 -16 15 4 20 1 20 -16 0 -12 7 -24 15 -27 8 -4 15 -10 15 -16 0 -5 7 -16 15 -24 8 -9 15 -24 15 -35 0 -10 4 -19 9 -19 5 0 14 -12 20 -27 6 -16 15 -35 20 -43 5 -8 12 -22 15 -30 3 -8 10 -22 15 -30 5 -8 17 -33 26 -55 10 -22 24 -53 31 -68 8 -16 14 -36 14 -45 0 -9 7 -26 15 -36 8 -11 15 -35 15 -54 0 -18 6 -43 12 -55 15 -27 38 -117 44 -177 3 -25 8 -52 11 -60 14 -34 35 -283 34 -405 0 -115 -17 -318 -30 -355 -6 -19 -11 -52 -11 -73 0 -22 -6 -53 -14 -70 -8 -18 -17 -49 -21 -69 -3 -21 -10 -38 -15 -38 -6 0 -10 -21 -10 -46 0 -31 -7 -54 -20 -71 -11 -14 -20 -34 -20 -44 0 -10 -4 -21 -10 -24 -5 -3 -10 -21 -10 -39 0 -19 -7 -39 -15 -46 -8 -7 -15 -20 -15 -30 0 -10 -6 -23 -14 -30 -8 -6 -16 -24 -18 -38 -2 -15 -7 -26 -13 -25 -17 4 -17 43 0 69 19 29 13 43 -10 24 -8 -7 -15 -25 -15 -40 0 -43 -12 -90 -21 -84 -12 7 -2 303 11 319 7 8 9 48 6 107 -3 51 -1 100 4 108 6 10 4 20 -7 32 -11 13 -18 43 -20 101 -2 45 -11 99 -20 119 -11 27 -14 56 -11 100 3 35 4 57 1 51 -9 -24 -23 -13 -23 16 0 17 6 31 16 35 9 3 14 13 11 20 -3 8 1 17 9 20 8 3 14 12 14 20 0 7 7 16 15 20 8 3 15 12 15 19 0 8 7 20 15 27 20 17 21 129 0 156 -8 10 -15 27 -15 37 0 9 -4 17 -10 17 -5 0 -10 7 -10 16 0 21 -64 80 -82 76 -9 -2 -23 4 -31 13 -11 10 -35 15 -74 15 -37 0 -67 6 -81 16 -13 9 -30 13 -39 10 -21 -8 -33 10 -33 50 0 16 -7 39 -15 50 -8 10 -15 31 -15 45 0 15 -7 32 -15 39 -8 7 -15 25 -15 40 0 15 -7 33 -15 40 -8 7 -15 27 -15 45 0 20 -6 35 -15 39 -8 3 -15 16 -15 29 0 13 -7 32 -15 43 -8 10 -15 26 -15 35 0 9 -7 22 -15 29 -8 7 -15 25 -15 41 0 16 -4 29 -10 29 -5 0 -10 7 -10 15 0 8 -9 19 -20 25 -11 6 -20 17 -20 24 0 8 -7 17 -16 20 -9 4 -14 13 -10 21 4 10 1 15 -8 13 -7 -2 -32 16 -54 39 -22 22 -48 43 -59 45 -11 2 -17 11 -15 22 3 15 -1 17 -25 12 -18 -4 -44 0 -67 9 -34 15 -126 16 -812 17 -694 0 -775 -2 -790 -16 -8 -9 -24 -16 -33 -16 -10 0 -24 -7 -31 -15 -7 -8 -21 -15 -31 -15 -11 0 -19 -4 -19 -9 0 -5 -21 -23 -47 -40 -27 -17 -57 -45 -68 -61 -11 -16 -26 -30 -34 -30 -8 0 -11 -6 -7 -15 3 -9 -3 -20 -14 -27 -11 -7 -20 -23 -20 -35 0 -13 -4 -23 -10 -23 -5 0 -10 -5 -10 -11 0 -7 -13 -34 -30 -61 -16 -26 -30 -57 -30 -67 0 -10 -7 -24 -15 -31 -8 -7 -15 -26 -15 -42 0 -16 -6 -31 -15 -34 -9 -4 -15 -19 -15 -38 0 -17 -7 -40 -15 -50 -8 -11 -15 -34 -15 -50 0 -17 -7 -40 -15 -50 -8 -11 -15 -34 -15 -52 0 -40 -9 -66 -21 -58 -5 3 -9 14 -9 25 0 19 0 19 -20 -1 -14 -14 -33 -20 -64 -20 -25 0 -48 -6 -55 -14 -6 -7 -24 -16 -39 -19 -37 -7 -122 -98 -122 -130 0 -13 -7 -32 -15 -43 -20 -26 -20 -123 0 -130 8 -4 15 -15 15 -25 0 -10 5 -19 10 -19 6 0 10 -11 10 -24 0 -13 9 -35 20 -49 24 -30 26 -70 5 -87 -10 -8 -15 -30 -15 -64 0 -28 -7 -64 -16 -81 -13 -26 -16 -84 -17 -392 -1 -199 -6 -365 -10 -369 -10 -10 -27 15 -21 31 3 6 -4 20 -16 30 -11 10 -20 30 -20 45 0 16 -7 30 -15 34 -8 3 -15 14 -15 25 0 11 -6 32 -14 48 -26 53 -39 98 -40 136 -1 25 -7 42 -19 48 -12 7 -17 23 -17 52 0 23 -7 51 -15 61 -8 11 -15 36 -15 55 0 20 -7 45 -15 55 -10 13 -15 44 -15 92 0 41 -6 87 -15 108 -22 53 -23 529 0 582 8 20 15 60 15 88 0 30 6 60 15 72 8 10 15 35 15 54 0 19 7 46 15 60 8 14 14 37 15 51 0 15 7 32 15 39 8 7 15 25 15 40 0 15 7 33 15 40 8 7 15 22 15 34 0 12 7 31 15 42 8 10 15 26 15 35 0 9 7 22 15 29 8 7 15 21 15 31 0 24 20 35 31 18 6 -9 7 -1 3 23 -5 30 -3 39 10 44 9 3 16 16 16 29 0 14 7 25 20 28 11 3 20 12 20 21 0 9 5 16 10 16 6 0 10 8 10 19 0 10 7 24 15 31 8 7 15 17 15 23 0 14 71 91 92 99 10 4 15 13 13 20 -3 7 6 25 20 40 14 15 25 32 25 38 0 5 4 10 8 10 5 0 22 14 40 31 19 18 36 28 43 23 8 -5 10 -2 7 8 -4 9 13 30 50 59 30 24 65 54 77 67 12 12 27 22 34 22 6 0 11 5 11 10 0 6 11 10 25 10 16 0 25 6 25 15 0 9 8 18 18 22 9 3 33 19 53 35 20 15 44 28 52 28 8 0 17 7 21 15 3 8 14 15 24 15 11 0 25 7 32 15 7 8 17 15 23 15 15 0 96 40 103 51 3 5 18 9 33 9 15 0 36 7 47 15 10 8 28 15 39 15 11 0 29 7 39 15 11 8 39 15 62 15 25 0 47 6 54 15 7 8 27 15 45 15 18 0 49 7 68 15 21 9 70 15 114 16 43 1 89 5 103 9 37 12 148 12 155 0z m483 -819 c9 -5 90 -11 179 -14 l162 -5 53 -36 c30 -19 72 -55 94 -78 41 -45 104 -140 104 -159 0 -6 6 -23 13 -37 19 -37 41 -89 62 -142 9 -25 23 -58 31 -73 8 -16 14 -35 14 -44 0 -8 6 -29 14 -46 19 -44 36 -110 46 -181 4 -32 15 -65 24 -74 14 -14 18 -14 39 6 20 19 36 22 116 24 l93 3 43 -49 c68 -77 83 -160 38 -218 -32 -41 -69 -57 -131 -56 -41 1 -73 -14 -59 -28 3 -3 20 -9 37 -13 26 -5 35 -14 49 -51 77 -192 101 -528 65 -900 -3 -30 -9 -100 -13 -155 -9 -114 -21 -151 -69 -218 -50 -70 -109 -97 -227 -103 -101 -5 -192 12 -239 44 -62 43 -133 196 -120 260 4 18 3 32 -2 32 -762 3 -1770 -2 -1776 -8 -4 -4 -13 -35 -19 -67 -6 -33 -17 -67 -25 -76 -8 -8 -14 -19 -14 -22 0 -24 -57 -90 -97 -114 -55 -32 -203 -59 -234 -43 -10 6 -43 10 -74 10 -77 0 -164 48 -165 91 0 9 -6 22 -13 28 -53 44 -92 681 -59 961 18 153 62 292 108 341 39 41 32 52 -29 45 -68 -9 -82 -3 -100 42 -12 31 -13 47 -2 98 16 78 26 95 77 136 40 31 47 33 114 32 48 -1 79 -7 97 -19 34 -22 47 -13 47 32 0 20 6 59 14 87 8 28 22 78 31 111 27 98 53 164 113 285 68 139 118 208 191 264 86 65 104 74 166 85 32 6 60 12 62 14 8 9 1155 7 1171 -2z m370 -2418 c2 -23 10 -47 18 -53 7 -7 14 -17 14 -23 0 -55 111 -177 161 -177 15 0 29 -7 33 -15 4 -12 28 -15 130 -15 117 0 164 -10 119 -27 -25 -9 -33 -23 -33 -60 0 -18 -4 -33 -9 -33 -5 0 -11 -10 -14 -21 -4 -14 -11 -20 -20 -16 -9 3 -14 -1 -13 -11 0 -10 -6 -17 -15 -16 -9 1 -16 -6 -15 -15 1 -9 -6 -15 -16 -15 -10 1 -14 -4 -11 -12 2 -7 -17 -35 -44 -61 -27 -26 -56 -60 -66 -75 -10 -16 -24 -28 -32 -28 -8 0 -15 -4 -15 -10 0 -5 -6 -10 -14 -10 -7 0 -21 -11 -30 -25 -17 -27 -72 -85 -80 -85 -3 0 -24 -18 -48 -41 -53 -50 -254 -199 -268 -199 -5 0 -10 -4 -10 -10 0 -5 -11 -12 -25 -16 -14 -3 -25 -10 -25 -15 0 -4 -16 -16 -35 -25 -20 -9 -40 -25 -46 -36 -7 -13 -18 -18 -30 -15 -11 3 -19 0 -19 -7 0 -7 -10 -18 -22 -24 -31 -16 -59 -35 -76 -49 -7 -7 -22 -13 -33 -13 -10 0 -19 -5 -19 -10 0 -6 -10 -15 -22 -20 -13 -6 -30 -14 -38 -19 -8 -5 -40 -17 -70 -27 -65 -22 -231 -24 -256 -3 -8 7 -36 23 -62 35 -26 13 -55 28 -64 34 -43 25 -54 31 -75 40 -13 5 -23 14 -23 20 0 5 -7 10 -15 10 -9 0 -18 6 -21 14 -3 8 -13 17 -22 20 -28 10 -141 86 -182 124 -14 12 -30 22 -37 22 -7 0 -13 4 -13 8 0 5 -27 28 -60 52 -34 25 -59 49 -56 56 3 8 -1 11 -9 7 -13 -4 -30 8 -95 68 -9 8 -24 18 -33 22 -10 3 -14 13 -11 21 4 11 0 13 -15 9 -12 -3 -21 -1 -21 6 0 13 -70 81 -82 81 -5 0 -8 6 -8 13 0 6 -14 21 -30 32 -16 11 -30 26 -30 33 0 6 -7 12 -15 12 -8 0 -15 4 -15 10 0 5 -27 37 -60 69 -33 33 -60 64 -60 69 0 6 -3 12 -8 14 -4 2 -22 22 -41 46 -26 33 -31 45 -22 56 10 11 8 16 -8 21 -23 7 -28 25 -8 25 6 1 58 2 114 3 66 1 106 6 115 15 6 6 24 12 39 12 15 0 32 7 39 15 7 8 19 15 26 15 19 0 103 89 110 116 3 13 12 25 20 28 8 3 14 14 14 25 0 11 7 26 15 35 8 8 15 26 15 40 l0 26 843 -2 842 -3 3 -42z"/> <path d="M1550 3155 c0 -8 5 -15 10 -15 6 0 10 7 10 15 0 8 -4 15 -10 15 -5 0 -10 -7 -10 -15z"/> <path d="M2750 4999 c-25 -4 -63 -12 -85 -18 -22 -6 -54 -11 -72 -11 -17 0 -38 -7 -47 -15 -8 -8 -21 -15 -28 -15 -21 0 -77 -59 -99 -104 -22 -44 -34 -75 -68 -176 -13 -36 -29 -79 -37 -97 -8 -17 -14 -38 -14 -46 0 -9 -8 -30 -17 -49 -9 -18 -22 -45 -30 -60 -18 -37 -16 -66 6 -77 12 -7 361 -11 1017 -11 l999 -1 3 21 c2 11 -3 23 -12 26 -9 3 -16 11 -16 16 0 6 -6 24 -13 41 -22 51 -38 99 -48 142 -6 22 -14 44 -20 49 -5 6 -9 16 -9 24 0 8 -7 30 -16 50 -8 21 -22 52 -29 70 -52 121 -76 155 -130 186 -51 30 -149 47 -300 52 -239 7 -891 10 -935 3z m598 -49 c33 0 42 -4 42 -17 0 -14 2 -15 9 -5 9 15 149 17 346 7 125 -7 148 -12 142 -30 -3 -7 1 -19 8 -25 12 -10 16 -9 21 4 9 22 40 20 65 -5 16 -16 18 -23 9 -34 -7 -8 -8 -19 -4 -26 5 -8 9 -7 16 5 12 21 28 11 28 -18 0 -13 7 -29 15 -36 8 -7 15 -20 15 -30 0 -10 7 -23 15 -30 8 -7 15 -23 15 -35 0 -13 7 -36 15 -51 8 -16 15 -38 15 -49 0 -11 7 -29 15 -39 17 -22 21 -106 5 -106 -5 0 -10 -7 -10 -16 0 -10 7 -14 22 -12 11 2 23 -3 25 -10 4 -10 -185 -12 -932 -11 -719 0 -935 3 -932 12 2 7 18 12 35 12 36 0 48 18 15 23 -18 3 -23 10 -23 31 0 16 7 34 15 41 8 7 15 29 15 50 0 23 7 43 19 54 11 10 17 25 14 35 -6 23 16 39 27 20 5 -7 6 6 3 29 -4 31 -1 47 10 60 8 9 17 28 19 41 5 35 28 39 28 5 0 -22 3 -25 12 -16 10 10 10 17 0 32 -15 24 -16 47 -2 55 6 3 14 -4 19 -17 8 -22 9 -22 15 9 7 32 26 46 50 37 7 -3 21 3 31 12 10 10 44 22 79 27 33 5 84 12 111 16 28 4 151 5 275 4 124 -2 244 -3 268 -3z"/> <path d="M3135 4930 c-3 -5 3 -10 15 -10 12 0 18 5 15 10 -3 6 -10 10 -15 10 -5 0 -12 -4 -15 -10z"/> <path d="M2046 3815 c-15 -8 -34 -15 -40 -15 -17 0 -66 -53 -66 -71 0 -7 -7 -23 -15 -33 -34 -45 -8 -128 52 -172 65 -47 98 -55 235 -58 214 -5 277 6 356 62 26 19 32 30 32 61 0 85 -105 210 -177 211 -16 1 -39 7 -53 15 -36 21 -284 21 -324 0z m289 -55 c49 0 66 -4 80 -20 10 -11 24 -20 31 -20 8 0 11 -6 7 -16 -4 -12 0 -15 18 -12 22 3 24 0 21 -37 -2 -38 -1 -39 10 -15 12 24 12 23 16 -18 4 -48 -10 -72 -42 -72 -11 -1 -39 -8 -61 -16 -60 -24 -197 -27 -280 -8 -105 25 -99 22 -85 39 11 13 7 15 -23 15 -37 0 -47 12 -47 58 0 51 12 73 41 79 17 3 26 10 23 18 -3 7 3 16 13 19 21 6 83 10 98 6 6 -2 18 0 28 5 10 4 24 2 34 -6 14 -12 17 -11 27 3 7 11 14 14 20 8 6 -6 38 -10 71 -10z"/> <path d="M4140 3823 c-123 -40 -209 -104 -222 -166 -4 -17 -10 -43 -13 -57 -10 -38 19 -95 57 -113 18 -8 74 -19 123 -24 107 -10 328 6 347 25 6 6 20 12 31 12 10 0 41 23 68 51 48 50 49 51 49 113 0 62 -1 64 -45 105 -25 23 -57 46 -71 51 -25 10 -296 13 -324 3z m252 -65 c75 1 106 -11 77 -29 -11 -7 -9 -9 7 -9 18 0 22 -8 27 -47 7 -65 -21 -116 -50 -91 -13 10 -15 7 -17 -22 -1 -10 -14 -16 -36 -18 -19 -2 -38 -9 -42 -15 -11 -17 -300 -17 -305 1 -3 6 -14 12 -26 12 -12 0 -28 4 -35 9 -10 6 -8 10 10 15 l23 6 -23 20 c-22 18 -22 22 -11 60 11 37 15 40 40 35 34 -8 48 12 17 24 -19 7 -20 10 -7 15 8 4 27 3 41 -3 27 -10 59 1 39 13 -26 17 6 27 75 24 40 -1 77 1 81 5 4 4 14 5 22 1 9 -4 51 -7 93 -6z"/> </g> </svg> 